<?xml version="1.0" encoding="UTF-8" standalone="no"?>
<svg
   width="16"
   height="12"
   fill="currentColor"
   class="bi bi-camera"
   viewBox="0 0 16 12"
   version="1.1"
   id="svg6"
   sodipodi:docname="camera.svg"
   inkscape:version="1.2.1 (9c6d41e410, 2022-07-14)"
   xmlns:inkscape="http://www.inkscape.org/namespaces/inkscape"
   xmlns:sodipodi="http://sodipodi.sourceforge.net/DTD/sodipodi-0.dtd"
   xmlns="http://www.w3.org/2000/svg"
   xmlns:svg="http://www.w3.org/2000/svg">
  <defs
     id="defs10" />
  <sodipodi:namedview
     id="namedview8"
     pagecolor="#ffffff"
     bordercolor="#000000"
     borderopacity="0.25"
     inkscape:showpageshadow="2"
     inkscape:pageopacity="0.0"
     inkscape:pagecheckerboard="0"
     inkscape:deskcolor="#d1d1d1"
     showgrid="false"
     inkscape:zoom="23.201941"
     inkscape:cx="15.171144"
     inkscape:cy="5.732279"
     inkscape:window-width="1366"
     inkscape:window-height="705"
     inkscape:window-x="-8"
     inkscape:window-y="-8"
     inkscape:window-maximized="1"
     inkscape:current-layer="svg6" />
  <path
     d="m 15,12 a 1,1 0 0 1 -1,1 H 2 A 1,1 0 0 1 1,12 V 6 A 1,1 0 0 1 2,5 H 3.172 A 3,3 0 0 0 5.292,4.121 L 6.122,3.293 A 1,1 0 0 1 6.827,3 h 2.344 a 1,1 0 0 1 0.707,0.293 l 0.828,0.828 A 3,3 0 0 0 12.828,5 H 14 a 1,1 0 0 1 1,1 z M 2,4 A 2,2 0 0 0 0,6 v 6 a 2,2 0 0 0 2,2 h 12 a 2,2 0 0 0 2,-2 V 6 A 2,2 0 0 0 14,4 H 12.828 A 2,2 0 0 1 11.414,3.414 L 10.586,2.586 A 2,2 0 0 0 9.172,2 H 6.828 A 2,2 0 0 0 5.414,2.586 L 4.586,3.414 A 2,2 0 0 1 3.172,4 Z"
     id="path2"
     transform="translate(0,-2)" />
  <path
     d="m 8,11 a 2.5,2.5 0 1 1 0,-5 2.5,2.5 0 0 1 0,5 z m 0,1 A 3.5,3.5 0 1 0 8,5 3.5,3.5 0 0 0 8,12 Z M 3,6.5 a 0.5,0.5 0 1 1 -1,0 0.5,0.5 0 0 1 1,0 z"
     id="path4"
     transform="translate(0,-2)" />
  <g
     id="g250"
     transform="matrix(0.02112598,0,0,0.02108592,5.9292593,4.2693085)">
	<path
   d="M 105.572,101.811 C 115.461,95.443 132.989,85.347 133.678,59.645 134.214,39.367 123.707,10.139 84.523,8.767 53.041,7.659 39.9,28.251 36.071,46.739 l -0.928,-0.126 c -1.932,0 -3.438,1.28 -5.34,2.889 -2.084,1.784 -4.683,3.979 -7.792,4.308 C 18.438,54.171 13.9,52.604 10.313,51.361 6.12,49.93 3.689,49.314 2.048,50.602 0.545,51.765 -0.13,53.864 0.02,56.828 c 0.331,6.326 4.971,18.917 16.016,25.778 7.67,4.765 16.248,5.482 20.681,5.482 0.006,0 0.006,0 0.006,0 2.37,0 4.945,-0.239 7.388,-0.726 2.741,4.218 5.228,7.476 6.037,9.752 2.054,5.851 -27.848,25.087 -27.848,55.01 0,29.916 22.013,48.475 56.727,48.475 h 55.004 c 30.593,0 70.814,-29.908 75.291,-92.48 -28.541,24.072 -42.294,-9.969 -103.75,-6.308 z M 18.941,77.945 C 8.775,71.617 4.992,58.922 5.294,55.525 c 0.897,0.24 2.194,0.689 3.228,1.042 4.105,1.415 9.416,3.228 14.068,2.707 4.799,-0.499 8.253,-3.437 10.778,-5.574 0.607,-0.509 1.393,-1.176 1.872,-1.491 0.87,0.315 0.962,0.693 1.176,3.14 0.196,2.26 0.473,5.37 2.362,9.006 1.437,2.761 3.581,5.705 5.646,8.542 1.701,2.336 4.278,5.871 4.535,6.404 -0.445,1.184 -4.907,3.282 -12.229,3.282 -6.553,0.008 -13.04,-1.679 -17.789,-4.638 z M 56.86,49.368 c 0,-4.938 4.001,-8.943 8.931,-8.943 4.941,0 8.942,4.005 8.942,8.943 0,4.931 -4.001,8.942 -8.942,8.942 -4.937,10e-4 -8.931,-4.011 -8.931,-8.942 z m 92.299,106.03 -20.63,11.169 13.408,9.293 c 0,0 -49.854,15.813 -72.198,-6.885 -11.006,-11.16 -13.06,-28.533 4.124,-38.84 17.184,-10.312 84.609,3.943 84.609,3.943 L 134.295,147.8 Z"
   id="path248" />

</g>
</svg>
